<?xml version="1.0" ?><svg data-name="Layer 1" id="Layer_1" viewBox="0 0 64 64" xmlns="http://www.w3.org/2000/svg"><title/><path d="M54.25,55.25H9.75a1,1,0,0,1-1-1V9.75a1,1,0,0,1,1-1h44.5a1,1,0,0,1,1,1v44.5A1,1,0,0,1,54.25,55.25Zm-43.5-2h42.5V10.75H10.75Z"/><path d="M32,47.14a15.14,15.14,0,0,1,0-30.28,1,1,0,0,1,0,2A13.14,13.14,0,1,0,44.87,34.69l-.89.88a1,1,0,0,1-1.41-1.41l2.87-2.87a1,1,0,0,1,1.7.71A15.15,15.15,0,0,1,32,47.14Z"/><path d="M48.2,36.21a1,1,0,0,1-.85-.47l-2.05-3.2A1,1,0,0,1,47,31.46L49,34.67a1,1,0,0,1-.3,1.38A1.09,1.09,0,0,1,48.2,36.21Z"/></svg>